<svg width="92" height="80" viewBox="0 0 92 80" fill="none" xmlns="http://www.w3.org/2000/svg">
<path d="M52.3326 15.3976C52.3326 15.8266 51.9846 16.1743 51.5558 16.1743C51.1268 16.1743 50.7793 15.8266 50.7793 15.3976C50.7793 14.9686 51.1268 14.621 51.5558 14.621C51.9846 14.621 52.3326 14.9686 52.3326 15.3976Z" fill="#F2F2F2"/>
<path d="M54.9478 15.3976C54.9478 15.8266 54.6 16.1743 54.171 16.1743C53.7421 16.1743 53.3945 15.8266 53.3945 15.3976C53.3945 14.9686 53.7421 14.621 54.171 14.621C54.6 14.621 54.9478 14.9686 54.9478 15.3976Z" fill="#F2F2F2"/>
<path d="M57.563 15.3976C57.563 15.8266 57.2153 16.1743 56.7863 16.1743C56.3575 16.1743 56.0098 15.8266 56.0098 15.3976C56.0098 14.9686 56.3575 14.621 56.7863 14.621C57.2153 14.621 57.563 14.9686 57.563 15.3976Z" fill="#F2F2F2"/>
<path d="M90.6594 76.1043C90.6594 78.2559 70.4731 80 45.572 80C20.6708 80 0.484375 78.2559 0.484375 76.1043C0.484375 73.9523 20.6708 72.2081 45.572 72.2081C70.4731 72.2081 90.6594 73.9523 90.6594 76.1043Z" fill="#ECE9E4"/>
<path d="M90.1153 41.1488V39.8747H89.2684V41.1488H87.9941V41.9957H89.2684V43.27H90.1153V41.9957H91.3894V41.1488H90.1153Z" fill="#BBDCB8"/>
<path d="M82.1139 7.013V5.06979H80.8221V7.013H78.8789V8.30484H80.8221V10.248H82.1139V8.30484H84.0573V7.013H82.1139Z" fill="#BBDCB8"/>
<path d="M78.4394 42.1427V41.2148H77.8224V42.1427H76.8945V42.7596H77.8224V43.6875H78.4394V42.7596H79.3674V42.1427H78.4394Z" fill="#BBDCB8"/>
<path d="M25.6796 12.3497V11.4218H25.0626V12.3497H24.1348V12.9666H25.0626V13.8945H25.6796V12.9666H26.6075V12.3497H25.6796Z" fill="#BBDCB8"/>
<path d="M18.5274 6.21351V4.93919H17.6803V6.21351H16.4062V7.06038H17.6803V8.33447H18.5274V7.06038H19.8017V6.21351H18.5274Z" fill="#BBDCB8"/>
<path d="M60.3674 8.81485C60.3674 9.08227 60.1505 9.29932 59.8829 9.29932C59.6153 9.29932 59.3984 9.08227 59.3984 8.81485C59.3984 8.54698 59.6153 8.33016 59.8829 8.33016C60.1505 8.33016 60.3674 8.54698 60.3674 8.81485Z" fill="#F8F0E3"/>
<path d="M62.35 0.484778C62.35 0.752202 62.133 0.969238 61.8655 0.969238C61.5979 0.969238 61.3809 0.752202 61.3809 0.484778C61.3809 0.217132 61.5979 7.92146e-05 61.8655 7.92146e-05C62.133 7.92146e-05 62.35 0.217132 62.35 0.484778Z" fill="#F8F0E3"/>
<path d="M72.7335 4.46709C72.7335 4.97375 72.3225 5.38477 71.8159 5.38477C71.3092 5.38477 70.8984 4.97375 70.8984 4.46709C70.8984 3.96043 71.3092 3.54964 71.8159 3.54964C72.3225 3.54964 72.7335 3.96043 72.7335 4.46709Z" fill="#F8F0E3"/>
<path d="M91.143 38.9311C91.143 39.1987 90.9259 39.4155 90.6583 39.4155C90.3909 39.4155 90.1738 39.1987 90.1738 38.9311C90.1738 38.6634 90.3909 38.4464 90.6583 38.4464C90.9259 38.4464 91.143 38.6634 91.143 38.9311Z" fill="white"/>
<path d="M90.6584 54.0585C90.6584 54.3261 90.4413 54.543 90.1739 54.543C89.9063 54.543 89.6895 54.3261 89.6895 54.0585C89.6895 53.7909 89.9063 53.574 90.1739 53.574C90.4413 53.574 90.6584 53.7909 90.6584 54.0585Z" fill="white"/>
<path d="M16.8908 27.6003C16.8908 27.8679 16.674 28.085 16.4063 28.085C16.1389 28.085 15.9219 27.8679 15.9219 27.6003C15.9219 27.3326 16.1389 27.1158 16.4063 27.1158C16.674 27.1158 16.8908 27.3326 16.8908 27.6003Z" fill="#EEF1FF"/>
<path d="M9.37419 7.5054C9.37419 8.01207 8.96338 8.42285 8.45659 8.42285C7.94989 8.42285 7.53906 8.01207 7.53906 7.5054C7.53906 6.99852 7.94989 6.58773 8.45659 6.58773C8.96338 6.58773 9.37419 6.99852 9.37419 7.5054Z" fill="#F8F0E3"/>
<path d="M26.551 2.32928C26.551 2.59692 26.3341 2.81396 26.0665 2.81396C25.7989 2.81396 25.582 2.59692 25.582 2.32928C25.582 2.06185 25.7989 1.84481 26.0665 1.84481C26.3341 1.84481 26.551 2.06185 26.551 2.32928Z" fill="#EEF1FF"/>
<path d="M0.969037 31.3861C0.969037 31.6538 0.752127 31.8706 0.484508 31.8706C0.216999 31.8706 0 31.6538 0 31.3861C0 31.1187 0.216999 30.9017 0.484508 30.9017C0.752127 30.9017 0.969037 31.1187 0.969037 31.3861Z" fill="#EEF1FF"/>
<path d="M7.61747 57.2057C7.61747 57.4734 7.40056 57.6904 7.13295 57.6904C6.86544 57.6904 6.64844 57.4734 6.64844 57.2057C6.64844 56.9383 6.86544 56.7215 7.13295 56.7215C7.40056 56.7215 7.61747 56.9383 7.61747 57.2057Z" fill="#EEF1FF"/>
<path d="M65.1928 71.1113C65.1928 71.1113 65.1883 71.1022 65.1797 71.0843L65.6737 67.9677C65.7807 67.9249 65.8861 67.8814 65.9913 67.8366C65.924 68.4728 65.8879 69.1113 65.8894 69.7514C65.9859 69.0669 66.1118 68.3894 66.2609 67.7185C67.2119 67.2911 68.0845 66.778 68.8872 66.1941C67.4988 67.9196 66.4194 69.5561 65.5865 71.0084C65.4564 71.0443 65.3255 71.0785 65.1928 71.1113Z" fill="#63B995"/>
<path d="M72.5352 69.751C72.5337 69.1109 72.5698 68.4724 72.6371 67.8362C72.7272 67.798 72.8182 67.7581 72.9067 67.7181C72.7576 68.389 72.6317 69.0665 72.5352 69.751Z" fill="#A1BCF0"/>
<path d="M77.0039 59.2012C79.2329 52.2311 78.7118 45.0907 78.7118 45.0907C78.4236 45.2317 78.1391 45.3744 77.861 45.5175C77.875 45.3127 77.8869 45.1174 77.8972 44.9325C78.2374 44.7556 78.5845 44.5799 78.9402 44.4057C78.9402 44.4057 79.4959 52.0222 77.0039 59.2012Z" fill="#E5ECF5"/>
<path d="M66.958 69.8018C66.958 69.8018 58.929 53.7499 80.7061 43.0962C80.7061 43.0962 82.3756 65.9697 66.958 69.8018Z" fill="#86DEB7"/>
<path d="M67.8829 67.7568C67.8775 65.4621 68.3569 63.1824 69.0176 60.9829C69.1023 60.7082 69.178 60.4297 69.2708 60.1571L69.5653 59.3458L69.8613 58.5339L70.1958 57.7377C70.6259 56.6677 71.1665 55.6498 71.6767 54.6171L72.5448 53.124C72.8247 52.6207 73.1423 52.1408 73.4647 51.6644C73.7905 51.1901 74.0994 50.7045 74.4388 50.2407C74.785 49.7818 75.1369 49.327 75.4905 48.8747L76.0204 48.1961L76.5899 47.5498L77.7366 46.2677C77.9245 46.0516 78.1336 45.8545 78.3389 45.6543L78.956 45.0562C79.3684 44.659 79.7849 44.2666 80.2037 43.8787C79.844 44.3252 79.4822 44.7673 79.1161 45.2045L78.5659 45.8578C78.3821 46.0749 78.1944 46.2884 78.0286 46.5207L76.9907 47.8743L76.468 48.5456L75.9809 49.244C75.6582 49.7105 75.3338 50.175 75.004 50.6353C74.6844 51.1027 74.3966 51.5911 74.0914 52.0674C73.4578 53.0066 72.9372 54.0128 72.3689 54.99C71.3076 56.9864 70.3718 59.0484 69.5981 61.1753C68.8398 63.3063 68.2024 65.4927 67.8829 67.7568Z" fill="white"/>
<path d="M74.5352 60.4971C78.2551 55.3854 79.4235 48.5136 79.787 44.3926C79.9264 44.222 80.0651 44.0506 80.2038 43.8786C80.0684 44.0038 79.9335 44.1296 79.7988 44.2557C79.8205 44 79.8394 43.7552 79.8554 43.5231C80.1334 43.38 80.418 43.2373 80.7062 43.0963C80.7062 43.0963 81.2273 50.2367 78.9983 57.2068C78.9171 57.4407 78.8327 57.6744 78.7449 57.9069C77.3765 58.4822 75.9444 59.3524 74.5352 60.4971Z" fill="#63B995"/>
<path d="M84.4395 46.3867C84.4434 46.3406 84.4474 46.2955 84.4512 46.2498C84.5859 46.1237 84.7209 45.9979 84.8562 45.8727C84.7175 46.0447 84.5788 46.2161 84.4395 46.3867Z" fill="#A1BCF0"/>
<path d="M64.9941 74.9683C64.9941 74.9683 66.1366 70.0803 70.9153 64.1572C76.1512 57.6681 82.9787 55.3329 85.813 58.4521C88.5639 61.4795 86.2269 65.6621 79.1406 67.7995C72.054 69.9369 68.0476 70.8577 64.9941 74.9683Z" fill="#FFCF74"/>
<path d="M83.5678 60.1512C81.9464 60.7928 80.3759 61.5365 78.8335 62.3243C77.2955 63.1213 75.7942 63.9846 74.3617 64.9486C72.9247 65.9049 71.5568 66.9631 70.2878 68.1326C69.0237 69.3068 67.8648 70.5982 66.8633 72.0283C67.2674 71.2549 67.7441 70.5183 68.2603 69.8088C68.7934 69.1131 69.3582 68.4371 69.9791 67.815C71.2088 66.5578 72.5912 65.4573 74.0466 64.4772C74.7802 63.9952 75.5275 63.5351 76.2931 63.1082C77.0634 62.6898 77.8422 62.287 78.6406 61.9277C80.2316 61.1994 81.8768 60.5846 83.5678 60.1512Z" fill="#F9AB43"/>
<path d="M64.9941 74.9683V74.968C64.9944 74.967 64.9975 74.9536 65.0039 74.9285C65.0126 74.9259 65.0212 74.923 65.0299 74.9201C65.0179 74.9361 65.0059 74.952 64.9941 74.9683ZM66.5146 73.2476C66.5163 73.2381 66.5179 73.2285 66.5194 73.219L67.0261 70.0224C67.4051 69.3053 67.849 68.5306 68.3663 67.7121C68.9693 67.7117 69.5656 67.6875 70.153 67.6409C70.0953 67.6988 70.0376 67.7569 69.9804 67.8153C69.3594 68.4374 68.7946 69.1133 68.2615 69.8091C67.7453 70.5186 67.2687 71.2552 66.8645 72.0286C67.8661 70.5985 69.025 69.3071 70.2891 68.1329C70.497 67.9411 70.7076 67.7525 70.9207 67.567C77.7165 66.7938 83.2684 63.0105 85.3156 57.9956C85.4918 58.133 85.6594 58.283 85.813 58.4521C86.564 59.2784 86.9357 60.1909 86.9352 61.1242C86.9344 63.6104 84.2928 66.2456 79.1406 67.7995C73.169 69.6005 69.3847 70.5379 66.5146 73.2476Z" fill="#E5C178"/>
<path d="M64.8691 74.0229C65.2733 73.2496 65.75 72.513 66.2662 71.8035C66.7992 71.1077 67.364 70.4317 67.985 69.8097C68.0422 69.7513 68.0999 69.6931 68.1576 69.6352C68.4153 69.6148 68.6712 69.5902 68.9253 69.5613C68.7122 69.7469 68.5016 69.9355 68.2937 70.1272C67.0296 71.3015 65.8707 72.5929 64.8691 74.0229Z" fill="#E0A14C"/>
<path d="M2.71058 59.0474C2.69436 59.0092 2.67824 58.9706 2.66211 58.9322C2.67807 58.9704 2.69453 59.0094 2.71058 59.0474ZM2.95043 58.9324H2.95017C2.95035 58.9324 2.95035 58.9324 2.95043 58.9324ZM2.66211 58.9322C2.66211 58.9322 2.69964 58.9315 2.77238 58.9315C2.6999 58.9315 2.66211 58.9322 2.66211 58.9322ZM2.90605 58.9322C2.90336 58.9322 2.90032 58.932 2.89764 58.932C2.9005 58.932 2.90319 58.9322 2.90605 58.9322ZM2.85239 58.9317C2.85205 58.9317 2.85135 58.9317 2.85092 58.9317C2.85143 58.9317 2.85188 58.9317 2.85239 58.9317Z" fill="#E5ECF5"/>
<path d="M36.495 74.2174C36.495 74.2174 20.0017 81.2948 10.6387 58.9322C10.6387 58.9322 33.5704 58.6019 36.495 74.2174Z" fill="#86DEB7"/>
<path d="M35.1796 73.4424C32.8887 73.3139 30.641 72.7021 28.4839 71.9142C28.2145 71.8135 27.9409 71.7216 27.6743 71.6131L26.8814 71.2715L26.0885 70.9286L25.313 70.5483C24.27 70.0565 23.2855 69.4573 22.2842 68.8876L20.8446 67.9337C20.3584 67.6252 19.898 67.2797 19.441 66.9299C18.9867 66.5771 18.5198 66.2404 18.0768 65.8745C17.6389 65.5021 17.2055 65.1243 16.7744 64.7448L16.1281 64.176L15.5162 63.5697L14.3033 62.35C14.0985 62.15 13.914 61.9297 13.7262 61.7131L13.1652 61.0619C12.7925 60.627 12.4254 60.1884 12.0625 59.7477C12.4871 60.1329 12.9075 60.52 13.3224 60.911L13.9426 61.4985C14.1487 61.6947 14.3508 61.8944 14.5731 62.0735L15.8635 63.1887L16.5033 63.7499L17.1718 64.2768C17.6189 64.6261 18.0635 64.977 18.5037 65.3332C18.9516 65.6794 19.4225 65.9958 19.8802 66.3281C20.7807 67.0152 21.7547 67.594 22.697 68.2182C24.6282 69.3945 26.6317 70.4493 28.7101 71.3459C30.7928 72.2274 32.9384 72.9912 35.1796 73.4424Z" fill="white"/>
<path d="M28.3678 66.4175C23.4791 62.3755 16.6558 60.7994 12.5495 60.1937C12.3872 60.0448 12.2242 59.8961 12.0607 59.7476C12.1778 59.8901 12.2956 60.0322 12.4136 60.174C11.9359 60.105 11.4964 60.0492 11.1035 60.0044C10.9633 59.6915 10.8244 59.373 10.6871 59.0475C10.6711 59.0095 10.6546 58.9705 10.6387 58.9323C10.6387 58.9323 10.6765 58.9316 10.7489 58.9316C10.7564 58.9316 10.7642 58.9316 10.7723 58.9316C10.777 58.9316 10.782 58.9316 10.7869 58.9316C10.7875 58.9316 10.788 58.9316 10.7886 58.9316C10.7929 58.9318 10.7973 58.9318 10.8018 58.9318C10.8029 58.9318 10.8041 58.9318 10.8051 58.9318C10.8086 58.9318 10.8121 58.9318 10.8157 58.9318C10.8164 58.9318 10.8169 58.9318 10.8176 58.9318C10.8207 58.9318 10.8242 58.9318 10.8275 58.9318C10.8279 58.9318 10.8286 58.9318 10.829 58.9318C10.8322 58.9318 10.8353 58.9318 10.8385 58.9318C10.8392 58.9318 10.84 58.9318 10.8407 58.9318C10.8459 58.9321 10.8511 58.9321 10.8564 58.9321C10.8612 58.9321 10.8661 58.9321 10.8711 58.9321C10.872 58.9321 10.8732 58.9321 10.8742 58.9321C10.8769 58.9321 10.8799 58.9323 10.8826 58.9323C10.8923 58.9323 10.9022 58.9323 10.9123 58.9325C10.9127 58.9325 10.9129 58.9325 10.9132 58.9325C10.9176 58.9325 10.9222 58.9325 10.9267 58.9325H10.927C12.0801 58.9438 16.5311 59.0776 21.4236 60.4159C24.4384 62.1292 26.6399 63.5959 28.2414 65.7038L28.3678 66.4175Z" fill="#63B995"/>
<path d="M4.89258 47.6377C4.89502 47.6359 4.89748 47.6342 4.89994 47.6324C4.89758 47.6342 4.89491 47.6359 4.89258 47.6377Z" fill="#DCE7F5"/>
<path d="M29.7141 68.1919C29.7141 68.1919 29.6338 63.173 26.2192 56.3715C22.478 48.9194 16.3007 45.1906 12.8696 47.6378C9.53917 50.0131 10.9368 54.5963 17.409 58.1874C23.8815 61.7784 27.6014 63.5276 29.7141 68.1919Z" fill="#FFCF74"/>
<path d="M14.7031 49.7745C16.1518 50.745 17.529 51.8049 18.8694 52.9017C20.2032 54.0064 21.4873 55.1687 22.6828 56.4143C23.8848 57.6536 24.9973 58.9778 25.9895 60.3895C26.976 61.8052 27.8346 63.313 28.5102 64.9229C28.2794 64.0813 27.9696 63.2604 27.6154 62.4575C27.2421 61.6647 26.8333 60.8842 26.3584 60.1447C25.4232 58.6556 24.3056 57.287 23.091 56.0206C22.4762 55.3941 21.8433 54.7861 21.1855 54.2064C20.5215 53.634 19.846 53.0757 19.142 52.555C17.7416 51.506 16.2641 50.5563 14.7031 49.7745Z" fill="#F9AB43"/>
<path d="M28.2434 65.7036C26.0022 62.7535 22.5861 61.0598 17.4091 58.1873C10.9368 54.5963 9.53917 50.0131 12.8696 47.6378C12.8717 47.6362 12.874 47.6347 12.8761 47.6331C13.0601 47.5026 13.2534 47.3928 13.4523 47.2973C14.3901 52.632 19.0141 57.5062 25.4913 59.7025C25.6602 59.929 25.826 60.1581 25.9887 60.3893C26.6786 61.3796 27.306 62.4146 27.8519 63.4983L28.2434 65.7036ZM27.7035 62.6616C27.6742 62.5933 27.6444 62.5254 27.6145 62.4572C27.2412 61.6645 26.8324 60.884 26.3575 60.1445C26.314 60.0753 26.2701 60.0063 26.2257 59.9375C26.5692 60.0411 26.9183 60.1374 27.2712 60.2255L27.7035 62.6616Z" fill="#E5C178"/>
<path d="M27.8509 63.4985C27.3049 62.4149 26.6775 61.3798 25.9876 60.3895C25.8249 60.1583 25.6591 59.9293 25.4902 59.7027C25.7326 59.785 25.9771 59.8631 26.2246 59.9377C26.269 60.0065 26.3129 60.0755 26.3564 60.1448C26.8313 60.8842 27.2401 61.6647 27.6134 62.4575C27.6434 62.5256 27.6731 62.5935 27.7024 62.6619L27.8509 63.4985Z" fill="#E0A14C"/>
<path d="M77.7827 33.7027C77.7818 33.7016 77.781 33.7004 77.7798 33.6993C77.7807 33.7004 77.7818 33.7016 77.7827 33.7027ZM77.7772 33.696C77.7765 33.6953 77.7758 33.6947 77.7754 33.6938C77.7761 33.6947 77.7765 33.6951 77.7772 33.696Z" fill="#DCE7F5"/>
<path d="M61.8662 69.1997C59.933 69.1997 58 68.4622 56.5251 66.9873C57.1261 67.5883 57.8027 68.0668 58.5249 68.4227C59.575 68.9407 60.7208 69.1997 61.8662 69.1997Z" fill="#F19D8F"/>
<path d="M66.0227 75.5259H29.9311C28.9429 75.5259 28.1243 74.7593 28.0601 73.773L24.7773 23.3748H71.1766L67.8938 73.773C67.8295 74.7593 67.011 75.5259 66.0227 75.5259Z" fill="#CCC5B9"/>
<path d="M57.4523 10.636H38.5008C37.5706 10.636 36.7304 11.1916 36.3665 12.048L34.2754 16.9668H61.6778L59.5866 12.048C59.2227 11.1916 58.3825 10.636 57.4523 10.636Z" fill="#CCC5B9"/>
<path d="M72.1401 25.4976H23.8153C23.0252 25.4976 22.3848 24.8568 22.3848 24.0668V17.4706C22.3848 16.6805 23.0252 16.0398 23.8153 16.0398H72.1401C72.9302 16.0398 73.5703 16.6805 73.5703 17.4706V24.0668C73.5703 24.8568 72.9302 25.4976 72.1401 25.4976Z" fill="#B7B0A5"/>
<path d="M47.9769 70.1025C46.7298 70.1025 45.7188 69.0917 45.7188 67.8445V33.1021C45.7188 31.8549 46.7298 30.844 47.9769 30.844C49.2241 30.844 50.2351 31.8549 50.2351 33.1021V67.8445C50.2351 69.0917 49.2241 70.1025 47.9769 70.1025Z" fill="#F5F0DD"/>
<path d="M37.929 70.0677C36.6841 70.1421 35.6144 69.193 35.5399 67.9481L33.469 33.268C33.3944 32.0232 34.3433 30.9534 35.5882 30.879C35.6337 30.8761 35.6792 30.8744 35.7244 30.8744C36.9107 30.8744 37.9054 31.7989 37.9772 32.9986L40.0486 67.6786C40.1227 68.9235 39.1739 69.9933 37.929 70.0677Z" fill="#F5F0DD"/>
<path d="M58.026 70.0677C59.2709 70.1421 60.3406 69.193 60.4151 67.9481L62.486 33.268C62.5605 32.0232 61.6117 30.9534 60.3668 30.879C60.3213 30.8761 60.2757 30.8744 60.2305 30.8744C59.0443 30.8744 58.0495 31.7989 57.9777 32.9986L55.9064 67.6786C55.8323 68.9235 56.7811 69.9933 58.026 70.0677Z" fill="#F5F0DD"/>
</svg>
