<svg width="18" height="18" viewBox="0 0 18 18" fill="none" xmlns="http://www.w3.org/2000/svg">
<path d="M8.22363 1.90723C8.57856 1.3272 9.42144 1.3272 9.77637 1.90723C10.2145 2.62303 11.1367 2.87045 11.874 2.46973C12.4713 2.14493 13.2011 2.56554 13.2188 3.24512C13.2402 4.08432 13.9157 4.75981 14.7549 4.78125C15.4345 4.79885 15.8551 5.52869 15.5303 6.12598C15.1296 6.86335 15.377 7.7855 16.0928 8.22363C16.6728 8.57856 16.6728 9.42144 16.0928 9.77637C15.377 10.2145 15.1296 11.1367 15.5303 11.874C15.8551 12.4713 15.4345 13.2011 14.7549 13.2188C13.9157 13.2402 13.2402 13.9157 13.2188 14.7549C13.2011 15.4345 12.4713 15.8551 11.874 15.5303C11.1367 15.1295 10.2145 15.377 9.77637 16.0928C9.42144 16.6728 8.57856 16.6728 8.22363 16.0928C7.7855 15.377 6.86335 15.1296 6.12598 15.5303C5.52869 15.8551 4.79885 15.4345 4.78125 14.7549C4.75981 13.9157 4.08432 13.2402 3.24512 13.2188C2.56554 13.2011 2.14493 12.4713 2.46973 11.874C2.87045 11.1367 2.62303 10.2145 1.90723 9.77637C1.3272 9.42144 1.3272 8.57856 1.90723 8.22363C2.62303 7.7855 2.87045 6.86335 2.46973 6.12598C2.14493 5.52869 2.56554 4.79885 3.24512 4.78125C4.08432 4.75981 4.75981 4.08432 4.78125 3.24512C4.79885 2.56554 5.52869 2.14493 6.12598 2.46973C6.86335 2.87045 7.7855 2.62303 8.22363 1.90723Z" fill="#63B995" stroke="white" stroke-width="0.666667"/>
<mask id="mask0_174_1778" style="mask-type:alpha" maskUnits="userSpaceOnUse" x="1" y="1" width="16" height="16">
<path d="M7.80715 1.70422C8.28401 0.924942 9.41599 0.924942 9.89285 1.70422C10.2326 2.25948 10.9479 2.45113 11.5198 2.14015C12.3224 1.7037 13.3027 2.26969 13.326 3.183C13.3426 3.83375 13.8662 4.35736 14.517 4.37398C15.4303 4.39731 15.9963 5.37763 15.5598 6.18024C15.2489 6.75212 15.4405 7.46738 15.9958 7.80715C16.7751 8.28401 16.7751 9.41599 15.9958 9.89285C15.4405 10.2326 15.2489 10.9479 15.5598 11.5198C15.9963 12.3224 15.4303 13.3027 14.517 13.326C13.8662 13.3426 13.3426 13.8662 13.326 14.517C13.3027 15.4303 12.3224 15.9963 11.5198 15.5598C10.9479 15.2489 10.2326 15.4405 9.89285 15.9958C9.41599 16.7751 8.28401 16.7751 7.80715 15.9958C7.46738 15.4405 6.75212 15.2489 6.18024 15.5598C5.37763 15.9963 4.39731 15.4303 4.37398 14.517C4.35736 13.8662 3.83375 13.3426 3.183 13.326C2.26969 13.3027 1.7037 12.3224 2.14015 11.5198C2.45113 10.9479 2.25948 10.2326 1.70422 9.89285C0.924942 9.41599 0.924942 8.28401 1.70422 7.80715C2.25948 7.46738 2.45113 6.75212 2.14015 6.18024C1.7037 5.37763 2.26969 4.39731 3.183 4.37398C3.83375 4.35736 4.35736 3.83375 4.37398 3.183C4.39731 2.26969 5.37763 1.7037 6.18024 2.14015C6.75212 2.45113 7.46738 2.25948 7.80715 1.70422Z" fill="#63B995"/>
</mask>
<g mask="url(#mask0_174_1778)">
<path d="M11.0705 6.20995L18.7144 11.062L15.5264 16.5838L7.20047 12.1499L7.20047 6.20993L11.0705 6.20995Z" fill="url(#paint0_linear_174_1778)"/>
</g>
<path d="M7.1543 12.15V6.05884H11.1719V6.93148H8.26886V8.65948H10.9732V9.53212H8.26886V12.15H7.1543Z" fill="white"/>
<defs>
<linearGradient id="paint0_linear_174_1778" x1="17.1905" y1="13.8599" x2="7.92047" y2="8.45995" gradientUnits="userSpaceOnUse">
<stop stop-color="#63B995"/>
<stop offset="1" stop-color="#3B9D74"/>
</linearGradient>
</defs>
</svg>
