<svg width="64" height="80" viewBox="0 0 64 80" fill="none" xmlns="http://www.w3.org/2000/svg">
<path d="M32.0016 0C14.4824 0 0 13.6064 0 30.3456C0 36.7944 2.1696 42.7984 5.8136 47.7136L26.6104 76.668L26.6984 76.776C28.3392 78.8072 30.1936 80.1864 32.3728 79.9792C34.552 79.7728 35.9664 78.2672 37.2984 76.5568L37.368 76.4688L60.3544 44.52L60.3688 44.4952C60.9064 43.5752 61.3008 42.6368 61.6392 41.724C63.1933 38.1317 63.9966 34.2596 64 30.3456C64 13.6072 49.5208 0 32.0016 0ZM32.0016 4.256C47.32 4.256 59.74 16.064 59.74 30.3456C59.74 33.7832 59.02 37.0608 57.7152 40.0792L57.6912 40.1344L57.6704 40.1904C57.3808 40.9792 57.0656 41.7032 56.692 42.3448L56.6888 42.352L33.8952 73.9872C32.8336 75.3336 32.0856 75.7312 31.968 75.7424C31.8504 75.7536 31.2856 75.6408 30.072 74.1632L9.352 45.3368L9.292 45.2568C6.1168 41.0064 4.26 35.8768 4.26 30.3448C4.26 16.0648 16.6832 4.2552 32.0016 4.2552M26.1856 19.2992C20.3632 19.2992 15.6496 23.7768 15.6296 29.2296V29.2992L15.6368 29.3688C16.1376 34.0928 20.0456 38.5984 23.84 42.1912C27.4424 45.6032 30.7568 47.8824 31.068 48.0952L31.78 48.584L32.5008 48.1056C32.8216 47.8912 36.3744 45.5088 40.1408 42.0384C44.1152 38.3752 48.1392 33.9328 48.2152 29.2792V29.256C48.212 23.7904 43.4872 19.2992 37.6544 19.2992C35.828 19.2992 34.1184 20.2512 32.336 21.244L31.92 21.4768L31.504 21.2448C29.7216 20.2504 28.0128 19.2992 26.1864 19.2992" fill="#44A27B"/>
</svg>
