<svg width="80" height="80" viewBox="0 0 80 80" fill="none" xmlns="http://www.w3.org/2000/svg">
<path d="M6.66602 40C6.66602 47.9565 9.82672 55.5871 15.4528 61.2132C21.0789 66.8393 28.7095 70 36.666 70C44.6225 70 52.2531 66.8393 57.8792 61.2132C63.5053 55.5871 66.666 47.9565 66.666 40C66.666 32.0435 63.5053 24.4129 57.8792 18.7868C52.2531 13.1607 44.6225 10 36.666 10C28.7095 10 21.0789 13.1607 15.4528 18.7868C9.82672 24.4129 6.66602 32.0435 6.66602 40Z" fill="#B8F5DB"/>
<path d="M59.0267 20C54.9762 15.4714 49.6461 12.2794 43.7418 10.8464C37.8374 9.41337 31.6372 9.80687 25.9614 11.9748C20.2856 14.1428 15.4018 17.983 11.9563 22.9874C8.51082 27.9917 6.66602 33.9243 6.66602 40C6.66602 46.0758 8.51082 52.0083 11.9563 57.0127C15.4018 62.017 20.2856 65.8572 25.9614 68.0252C31.6372 70.1931 37.8374 70.5866 43.7418 69.1536C49.6461 67.7206 54.9762 64.5286 59.0267 60M73.3334 40H26.6667M73.3334 40L60 26.6667M73.3334 40L60 53.3333" stroke="#44A27B" stroke-width="1.5"/>
</svg>
