<svg width="22" height="24" viewBox="0 0 22 24" fill="none" xmlns="http://www.w3.org/2000/svg">
<path d="M18.2657 12.3217V10.0781C18.2657 6.80522 16.0902 4.0312 13.1094 3.12516V2.10938C13.1094 0.946266 12.1632 0 11.0001 0C9.83695 0 8.89068 0.946266 8.89068 2.10938V3.12516C5.9099 4.0312 3.73443 6.80517 3.73443 10.0781V12.3217C3.73443 15.1966 2.63859 17.9227 0.648789 19.9977C0.453789 20.2011 0.398992 20.5011 0.509523 20.7602C0.620055 21.0194 0.874586 21.1875 1.1563 21.1875H7.55516C7.88179 22.7903 9.30229 24 11.0001 24C12.6979 24 14.1183 22.7903 14.4449 21.1875H20.8438C21.1255 21.1875 21.38 21.0194 21.4905 20.7602C21.6011 20.5011 21.5463 20.2011 21.3513 19.9977C19.3615 17.9227 18.2657 15.1965 18.2657 12.3217ZM10.2969 2.10938C10.2969 1.72167 10.6124 1.40625 11.0001 1.40625C11.3878 1.40625 11.7032 1.72167 11.7032 2.10938V2.84663C11.4718 2.82431 11.2372 2.8125 11.0001 2.8125C10.7629 2.8125 10.5284 2.82431 10.2969 2.84663V2.10938ZM11.0001 22.5938C10.0834 22.5938 9.30187 22.0059 9.01162 21.1875H12.9885C12.6982 22.0059 11.9167 22.5938 11.0001 22.5938ZM2.67177 19.7812C4.27307 17.6348 5.14068 15.0371 5.14068 12.3217V10.0781C5.14068 6.84727 7.7692 4.21875 11.0001 4.21875C14.2309 4.21875 16.8594 6.84727 16.8594 10.0781V12.3217C16.8594 15.0371 17.727 17.6348 19.3284 19.7812H2.67177Z" fill="black"/>
<path d="M20.141 10.0778C20.141 10.4661 20.4558 10.7809 20.8441 10.7809C21.2324 10.7809 21.5472 10.4661 21.5472 10.0778C21.5472 7.26061 20.4502 4.61204 18.4581 2.61999C18.1836 2.34544 17.7384 2.3454 17.4638 2.61999C17.1892 2.89458 17.1892 3.33976 17.4638 3.61435C19.1902 5.3408 20.141 7.63622 20.141 10.0778Z" fill="black"/>
<path d="M1.15625 10.7809C1.54456 10.7809 1.85938 10.4661 1.85938 10.0778C1.85938 7.63624 2.81019 5.34082 4.53659 3.61437C4.81119 3.33977 4.81119 2.8946 4.53659 2.62001C4.26205 2.34541 3.81683 2.34541 3.54223 2.62001C1.55019 4.61205 0.453125 7.26059 0.453125 10.0778C0.453125 10.4661 0.767937 10.7809 1.15625 10.7809Z" fill="black"/>
</svg>
