<svg width="64" height="72" viewBox="0 0 64 72" fill="none" xmlns="http://www.w3.org/2000/svg">
<path d="M43.3167 69C38.4044 69.2268 33.4875 69.338 28.57 69.3333C23.6525 69.3367 18.7356 69.2256 13.8233 69C8.23 68.7467 3.63667 64.3833 2.89 58.8167C2.4 55.1833 2 51.46 2 47.6667C2 43.8733 2.4 40.15 2.89 36.5167C3.63667 30.95 8.23 26.5867 13.8233 26.33C18.5267 26.1133 23.3067 26 28.5667 26C33.8267 26 38.61 26.1133 43.3133 26.3333C46.8467 26.4933 49.98 28.2933 51.9967 31" stroke="#44A27B" stroke-width="4" stroke-linecap="round" stroke-linejoin="round"/>
<path d="M48.667 45.927C48.6776 44.1689 49.3857 42.4869 50.6357 41.2506C51.8858 40.0143 53.5755 39.3248 55.3337 39.3337C59.017 39.3337 62.0003 42.287 62.0003 45.927C62.0003 47.2403 61.6137 48.4603 60.9437 49.4903C58.9503 52.5537 55.3337 55.4737 55.3337 59.1137V60.7637M55.3337 69.3337H55.3737M13.667 26.0003V17.667C13.667 13.6887 15.2473 9.87344 18.0604 7.06039C20.8734 4.24735 24.6887 2.66699 28.667 2.66699C32.6452 2.66699 36.4605 4.24735 39.2736 7.06039C42.0866 9.87344 43.667 13.6887 43.667 17.667V26.0003M32.0003 47.6337V47.667M18.667 47.6337V47.667" stroke="#44A27B" stroke-width="4" stroke-linecap="round" stroke-linejoin="round"/>
</svg>
